<svg xmlns="http://www.w3.org/2000/svg">
    <symbol id='arrow-prev' viewBox="0 0 24 24" fill="none">
        <path d="M15 18L9 12L15 6" stroke="#0A2232" stroke-width="1.5" stroke-linecap="round"
            stroke-linejoin="round" />

    </symbol>
    <symbol id='arrow-next' viewBox="0 0 24 24" fill="none">
        <path d="M9 18L15 12L9 6" stroke="#0A2232" stroke-width="1.5" stroke-linecap="round"
            stroke-linejoin="round" />
    </symbol>
    <symbol id='calendar'>
        <path
            d="M14 22H10C6.22876 22 4.34315 22 3.17157 20.8284C2 19.6569 2 17.7712 2 14V12C2 8.22876 2 6.34315 3.17157 5.17157C4.34315 4 6.22876 4 10 4H14C17.7712 4 19.6569 4 20.8284 5.17157C22 6.34315 22 8.22876 22 12V14C22 17.7712 22 19.6569 20.8284 20.8284C20.1752 21.4816 19.3001 21.7706 18 21.8985"
            stroke-width="1.5" stroke-linecap="round" />
        <path d="M7 4V2.5" stroke-width="1.5" stroke-linecap="round" />
        <path d="M17 4V2.5" stroke-width="1.5" stroke-linecap="round" />
        <path d="M21.5 9H16.625H10.75M2 9H5.875" stroke-width="1.5"
            stroke-linecap="round" />
        <path
            d="M18 17C18 17.5523 17.5523 18 17 18C16.4477 18 16 17.5523 16 17C16 16.4477 16.4477 16 17 16C17.5523 16 18 16.4477 18 17Z"
            fill="#1C274C" />
        <path
            d="M18 13C18 13.5523 17.5523 14 17 14C16.4477 14 16 13.5523 16 13C16 12.4477 16.4477 12 17 12C17.5523 12 18 12.4477 18 13Z"
            fill="#1C274C" />
        <path
            d="M13 17C13 17.5523 12.5523 18 12 18C11.4477 18 11 17.5523 11 17C11 16.4477 11.4477 16 12 16C12.5523 16 13 16.4477 13 17Z"
            fill="#1C274C" />
        <path
            d="M13 13C13 13.5523 12.5523 14 12 14C11.4477 14 11 13.5523 11 13C11 12.4477 11.4477 12 12 12C12.5523 12 13 12.4477 13 13Z"
            fill="#1C274C" />
        <path
            d="M8 17C8 17.5523 7.55228 18 7 18C6.44772 18 6 17.5523 6 17C6 16.4477 6.44772 16 7 16C7.55228 16 8 16.4477 8 17Z"
            fill="#1C274C" />
        <path
            d="M8 13C8 13.5523 7.55228 14 7 14C6.44772 14 6 13.5523 6 13C6 12.4477 6.44772 12 7 12C7.55228 12 8 12.4477 8 13Z"
            fill="#1C274C" />
    </symbol>
    <symbol id='plus'>
        <path d="M4 12H20M12 4V20" stroke-width="2" stroke-linecap="round" stroke-linejoin="round" />
    </symbol>
    <symbol id='arrow-bottom' viewBox="0 0 24 24" fill="none">
        <path d="M19.5 8.5L12.5 15.5L5.5 8.5" stroke-width="1.5"
            stroke-linecap="round" stroke-linejoin="round" />
    </symbol>
    <symbol id='delete' viewBox="0 0 24 24">
        <path
            d="M 14.984375 2.4863281 A 1.0001 1.0001 0 0 0 14 3.5 L 14 4 L 8.5 4 A 1.0001 1.0001 0 0 0 7.4863281 5 L 6 5 A 1.0001 1.0001 0 1 0 6 7 L 24 7 A 1.0001 1.0001 0 1 0 24 5 L 22.513672 5 A 1.0001 1.0001 0 0 0 21.5 4 L 16 4 L 16 3.5 A 1.0001 1.0001 0 0 0 14.984375 2.4863281 z M 6 9 L 7.7929688 24.234375 C 7.9109687 25.241375 8.7633438 26 9.7773438 26 L 20.222656 26 C 21.236656 26 22.088031 25.241375 22.207031 24.234375 L 24 9 L 6 9 z" />
    </symbol>
    <symbol id='edit' viewBox="0 0 50 50">
        <path
            d="M 43.125 2 C 41.878906 2 40.636719 2.488281 39.6875 3.4375 L 38.875 4.25 L 45.75 11.125 C 45.746094 11.128906 46.5625 10.3125 46.5625 10.3125 C 48.464844 8.410156 48.460938 5.335938 46.5625 3.4375 C 45.609375 2.488281 44.371094 2 43.125 2 Z M 37.34375 6.03125 C 37.117188 6.0625 36.90625 6.175781 36.75 6.34375 L 4.3125 38.8125 C 4.183594 38.929688 4.085938 39.082031 4.03125 39.25 L 2.03125 46.75 C 1.941406 47.09375 2.042969 47.457031 2.292969 47.707031 C 2.542969 47.957031 2.90625 48.058594 3.25 47.96875 L 10.75 45.96875 C 10.917969 45.914063 11.070313 45.816406 11.1875 45.6875 L 43.65625 13.25 C 44.054688 12.863281 44.058594 12.226563 43.671875 11.828125 C 43.285156 11.429688 42.648438 11.425781 42.25 11.8125 L 9.96875 44.09375 L 5.90625 40.03125 L 38.1875 7.75 C 38.488281 7.460938 38.578125 7.011719 38.410156 6.628906 C 38.242188 6.246094 37.855469 6.007813 37.4375 6.03125 C 37.40625 6.03125 37.375 6.03125 37.34375 6.03125 Z" />
    </symbol>
    <symbol id='close' viewBox="0 0 48 48">
        <path d="M36 12L12 36" stroke-width="2" stroke-linecap="round"
            stroke-linejoin="round" />
        <path d="M12 12L36 36" stroke-width="2" stroke-linecap="round"
            stroke-linejoin="round" />
    </symbol>
</svg>